<svg xmlns="http://www.w3.org/2000/svg" xmlns:xlink="http://www.w3.org/1999/xlink" width="500" zoomAndPan="magnify" viewBox="0 0 375 374.999991" height="500" preserveAspectRatio="xMidYMid meet" version="1.0"><defs><clipPath id="5ae76ff77d"><path d="M 47.890625 0 L 326.890625 0 L 326.890625 375 L 47.890625 375 Z M 47.890625 0 " clip-rule="nonzero"/></clipPath></defs><g clip-path="url(#5ae76ff77d)"><path fill="#5f55ce" d="M 327.097656 51.261719 L 238.316406 0 L 184.285156 31.195312 L 184.285156 92.496094 L 190.707031 96.207031 L 190.707031 34.90625 L 238.316406 7.417969 L 238.316406 216.734375 L 187.496094 187.390625 L 136.675781 216.734375 L 136.675781 79.851562 L 184.285156 107.335938 L 184.285156 178.117188 L 190.707031 181.828125 L 190.707031 103.625 L 136.675781 72.429688 L 47.894531 123.691406 C 47.894531 190.375 47.894531 257.054688 47.894531 323.738281 L 136.675781 375 L 136.675781 265.292969 L 187.496094 235.957031 L 238.316406 265.292969 L 238.316406 375 L 327.097656 323.738281 C 327.097656 232.910156 327.097656 142.085938 327.097656 51.261719 Z M 327.097656 51.261719 " fill-opacity="1" fill-rule="evenodd"/></g><path fill="#433d8b" d="M 169.085938 295.050781 L 184.621094 295.050781 L 184.621094 279.519531 L 169.085938 279.519531 Z M 184.621094 300.800781 L 169.085938 300.800781 L 169.085938 316.335938 L 184.621094 316.335938 Z M 205.90625 300.800781 L 190.371094 300.800781 L 190.371094 316.335938 L 205.90625 316.335938 Z M 190.371094 279.519531 L 190.371094 295.050781 L 205.90625 295.050781 L 205.90625 279.519531 Z M 190.371094 279.519531 " fill-opacity="1" fill-rule="evenodd"/></svg>